<?xml version="1.0" encoding="UTF-8" ?>
<!DOCTYPE svg PUBLIC "-//W3C//DTD SVG 1.1//EN" "http://www.w3.org/Graphics/SVG/1.1/DTD/svg11.dtd">
<svg width="500pt" height="500pt" viewBox="0 0 500 500" version="1.1" xmlns="http://www.w3.org/2000/svg">
<g id="#ffffffff">
</g>
<g id="#805d6bff">
<path fill="#805d6b" opacity="1.00" d=" M 279.59 62.70 C 281.99 60.35 285.70 60.34 288.84 60.52 C 292.00 60.76 293.13 64.05 295.15 65.94 C 296.78 67.26 298.61 68.32 300.16 69.75 C 314.67 82.66 329.24 95.50 343.92 108.20 C 345.99 113.38 346.42 120.14 342.53 124.62 C 339.49 127.73 335.24 129.15 331.82 131.74 C 330.23 132.51 330.95 134.45 330.80 135.82 C 314.90 150.73 298.11 164.69 280.63 177.72 C 269.34 186.57 257.92 195.31 247.33 205.01 C 249.84 206.14 252.49 206.97 255.25 207.22 C 254.75 207.55 253.77 208.21 253.27 208.54 C 254.71 209.69 256.26 210.69 257.90 211.53 C 258.41 211.17 259.42 210.45 259.93 210.09 C 278.29 227.23 301.91 237.17 321.17 253.17 C 323.44 253.03 325.71 253.32 327.94 253.81 C 334.79 261.68 345.02 265.09 352.93 271.62 C 353.35 271.47 354.20 271.17 354.62 271.02 C 359.81 274.65 365.23 277.94 370.44 281.56 C 371.86 282.59 373.42 283.44 375.16 283.83 C 375.69 285.03 376.18 286.25 376.66 287.49 C 379.82 288.79 383.31 289.13 386.41 290.55 C 388.37 292.50 389.02 295.43 388.81 298.12 C 388.76 301.38 385.89 303.62 385.50 306.81 C 351.49 323.79 325.87 353.10 293.30 372.32 C 291.88 373.18 290.33 374.01 289.50 375.53 C 286.10 381.17 281.71 386.40 276.02 389.85 C 276.99 389.54 278.93 388.91 279.90 388.60 C 279.11 389.39 277.51 390.98 276.71 391.78 C 276.31 391.58 275.50 391.18 275.10 390.98 C 273.18 392.50 270.70 394.15 271.08 396.96 C 275.46 396.51 277.58 391.45 281.92 391.33 C 279.46 395.39 275.15 397.59 271.41 400.26 C 255.33 411.64 238.34 421.66 220.96 430.90 C 216.64 432.95 212.51 435.44 207.97 436.98 C 218.41 430.67 228.21 423.39 237.59 415.61 C 237.65 414.98 237.75 413.70 237.81 413.06 C 239.77 411.15 242.09 409.25 242.39 406.33 C 255.22 396.48 268.01 386.57 280.56 376.35 C 281.44 375.60 282.13 374.69 282.63 373.62 C 270.38 381.43 258.96 390.51 247.06 398.84 C 248.95 395.53 252.05 393.25 254.84 390.79 C 269.37 378.71 284.63 367.55 299.69 356.14 C 310.53 348.60 320.75 340.20 331.42 332.44 C 331.91 332.61 332.89 332.94 333.38 333.10 C 334.87 331.81 336.22 330.38 337.58 328.96 C 343.68 322.58 349.07 315.53 355.34 309.32 C 356.25 308.11 358.89 308.03 358.90 306.37 C 356.61 304.41 354.01 302.86 351.71 300.93 C 352.51 300.93 354.10 300.92 354.90 300.92 C 358.46 303.09 360.60 306.90 363.78 309.56 C 365.96 308.03 368.03 306.35 369.96 304.50 C 368.56 304.48 367.16 304.46 365.76 304.46 C 367.88 302.50 370.01 300.55 372.18 298.65 C 372.85 299.87 373.51 301.08 374.18 302.31 C 376.35 301.41 378.38 300.21 380.26 298.81 C 377.64 296.24 374.78 293.62 371.11 292.73 C 367.71 291.90 364.23 291.40 360.91 290.26 C 360.41 290.41 359.43 290.71 358.94 290.87 C 355.82 288.92 352.96 286.59 350.53 283.83 C 356.15 286.29 361.85 290.31 368.29 289.07 C 366.72 287.96 365.10 286.93 363.43 285.99 C 358.46 282.59 353.63 278.96 348.74 275.43 C 349.69 275.31 351.57 275.07 352.51 274.95 C 349.74 271.61 345.36 270.54 342.12 267.81 C 340.62 266.74 339.21 265.05 337.12 265.47 L 338.38 268.22 C 337.85 268.24 336.79 268.26 336.25 268.27 C 335.56 267.96 334.17 267.33 333.47 267.01 L 333.86 267.02 C 331.10 263.01 326.29 261.20 322.03 259.24 C 322.20 259.55 322.53 260.17 322.69 260.48 C 324.21 263.83 327.77 265.72 331.32 265.99 C 331.55 266.23 332.01 266.72 332.24 266.96 C 334.46 269.56 337.79 271.07 339.43 274.21 C 336.03 272.40 333.42 269.41 330.01 267.67 C 329.42 267.73 328.26 267.85 327.68 267.91 C 331.56 272.79 338.73 273.87 341.88 279.37 C 331.13 279.65 328.03 265.22 317.22 265.64 C 322.39 271.01 329.13 274.59 334.14 280.13 C 331.18 278.26 328.26 276.23 324.87 275.24 C 321.34 273.92 317.30 273.21 314.59 270.39 C 312.27 267.98 310.11 265.42 307.78 263.02 C 307.31 263.37 306.38 264.09 305.91 264.44 C 294.05 254.93 280.55 247.75 268.40 238.65 C 263.07 234.91 258.67 229.84 252.62 227.19 C 252.31 227.96 251.69 229.50 251.38 230.27 C 248.03 228.50 245.89 225.22 242.71 223.24 C 239.01 220.83 234.83 219.33 230.98 217.21 C 230.58 208.10 229.69 199.02 229.29 189.91 C 228.45 191.48 227.45 193.09 227.80 194.95 C 228.37 203.23 228.98 211.51 229.50 219.80 C 232.06 221.23 234.67 222.59 237.26 223.97 C 236.65 228.19 240.39 232.62 244.80 231.33 C 252.10 235.19 257.12 242.96 265.44 245.06 C 264.98 246.42 264.71 247.83 264.63 249.27 C 259.70 246.16 254.33 243.78 249.59 240.39 C 242.57 235.44 235.54 230.51 228.66 225.37 C 227.49 224.64 226.90 223.42 226.98 222.05 C 226.31 210.76 225.34 199.49 224.80 188.19 C 228.71 185.11 232.38 181.74 236.26 178.64 C 235.57 180.50 234.85 182.35 234.15 184.21 C 239.58 181.61 244.51 178.06 248.70 173.74 C 246.39 171.95 248.53 169.49 250.05 168.03 C 257.54 160.81 265.83 154.50 273.69 147.70 C 275.63 146.00 277.44 144.13 279.64 142.74 C 285.84 139.42 288.99 132.59 294.81 128.75 C 297.87 126.55 301.36 125.11 304.90 123.86 C 308.31 122.78 310.37 119.69 312.51 117.04 C 311.59 117.21 309.74 117.54 308.82 117.70 C 309.81 116.58 310.82 115.47 311.82 114.34 C 302.99 106.04 294.45 97.13 283.90 90.96 C 280.32 95.09 276.76 99.41 271.97 102.19 C 273.83 96.78 278.94 93.67 282.70 89.69 C 282.46 89.31 281.97 88.56 281.73 88.19 C 277.60 91.93 273.43 95.61 269.00 98.98 C 263.81 103.19 258.11 107.16 254.76 113.11 C 257.02 112.18 259.25 111.17 261.48 110.16 C 256.66 114.26 250.53 116.21 245.24 119.58 C 246.12 117.09 246.99 114.60 247.85 112.11 C 240.18 121.64 230.65 129.39 222.29 138.27 C 222.42 138.65 222.69 139.40 222.82 139.78 C 218.33 141.79 214.22 144.52 210.18 147.31 C 210.06 147.91 209.81 149.12 209.69 149.72 C 203.54 152.39 200.18 158.65 194.46 161.85 C 194.26 158.51 197.85 157.90 200.04 156.49 C 199.10 156.17 197.92 154.66 197.01 155.90 C 191.88 160.66 186.91 165.58 181.73 170.29 C 178.88 171.43 176.02 172.57 173.03 173.31 C 171.33 175.60 169.70 178.01 167.36 179.71 C 168.50 172.95 175.35 169.27 177.46 162.89 C 176.12 163.20 174.79 163.51 173.46 163.82 C 178.62 158.79 186.10 157.82 191.93 153.87 C 194.13 152.49 195.00 149.91 196.23 147.76 C 196.76 148.29 197.82 149.35 198.35 149.88 C 200.30 147.14 201.85 144.15 203.01 141.00 C 208.85 138.62 213.59 134.36 217.79 129.77 C 221.47 125.66 225.59 121.99 229.63 118.23 C 229.51 118.93 229.26 120.32 229.14 121.02 C 233.88 118.29 239.32 116.27 242.75 111.77 C 248.50 105.50 253.49 97.40 262.11 94.86 C 261.68 96.20 261.26 97.53 260.84 98.87 C 264.15 96.85 266.78 93.97 269.00 90.83 C 268.57 90.42 267.72 89.62 267.29 89.22 C 270.78 86.12 274.33 83.08 277.87 80.04 C 276.81 78.97 275.75 77.89 274.71 76.81 C 270.74 77.90 267.23 80.18 263.24 81.21 C 260.86 81.92 258.65 83.08 256.39 84.08 C 263.79 76.60 271.74 69.69 279.59 62.70 Z" />
<path fill="#805d6b" opacity="1.00" d=" M 250.56 91.98 C 253.46 92.00 255.80 90.23 258.18 88.84 C 253.97 92.75 249.37 96.23 244.97 99.93 C 239.20 104.48 233.61 109.40 227.02 112.75 L 226.96 111.23 C 226.93 110.38 226.86 108.69 226.83 107.85 C 231.39 103.64 236.90 100.66 241.58 96.61 C 242.71 95.81 243.14 94.48 243.61 93.24 C 245.93 92.83 248.23 92.32 250.56 91.98 Z" />
<path fill="#805d6b" opacity="1.00" d=" M 218.21 121.14 C 220.64 117.59 224.75 115.91 228.35 113.85 C 223.26 119.34 217.65 124.39 211.95 129.24 C 213.82 126.37 216.15 123.85 218.21 121.14 Z" />
<path fill="#805d6b" opacity="1.00" d=" M 209.18 123.29 C 213.09 120.48 216.38 115.35 221.57 115.33 C 214.64 120.61 209.23 127.56 202.58 133.17 C 202.62 133.59 202.72 134.42 202.76 134.84 C 195.30 139.80 188.57 145.71 181.70 151.45 C 182.21 150.18 182.72 148.91 183.22 147.64 C 183.00 147.71 182.55 147.83 182.33 147.89 C 181.34 147.94 179.37 148.04 178.39 148.08 C 178.58 146.82 178.94 145.61 179.47 144.47 C 186.54 144.71 189.03 136.52 194.92 134.16 C 193.41 136.31 191.49 138.13 190.01 140.31 C 194.81 137.93 197.95 133.44 202.05 130.15 C 204.50 128.09 207.45 126.75 210.04 124.89 C 209.82 124.49 209.40 123.69 209.18 123.29 Z" />
<path fill="#805d6b" opacity="1.00" d=" M 223.59 139.30 C 226.93 136.49 229.84 133.23 233.11 130.36 C 232.17 135.15 227.53 137.34 223.59 139.30 Z" />
<path fill="#805d6b" opacity="1.00" d=" M 169.32 154.27 C 170.13 153.76 171.75 152.26 172.36 153.87 C 172.25 154.41 172.02 155.49 171.90 156.03 C 168.04 158.54 162.64 160.00 161.78 165.26 C 159.83 168.91 156.29 171.10 152.69 172.85 C 153.27 169.06 155.97 166.17 158.56 163.56 C 161.97 160.27 165.60 157.20 169.32 154.27 Z" />
<path fill="#805d6b" opacity="1.00" d=" M 143.30 175.21 C 145.56 173.41 147.23 170.77 150.06 169.78 C 147.30 172.45 144.75 175.64 144.61 179.67 C 144.32 179.94 144.02 180.21 143.71 180.46 C 141.99 179.73 140.82 181.29 139.64 182.24 C 140.75 179.85 141.14 176.93 143.30 175.21 Z" />
<path fill="#805d6b" opacity="1.00" d=" M 165.93 173.01 C 162.47 180.04 156.59 185.42 151.01 190.76 C 150.28 189.63 149.63 188.08 150.81 187.00 C 155.25 181.72 161.13 177.93 165.93 173.01 Z" />
<path fill="#805d6b" opacity="1.00" d=" M 143.47 191.49 C 145.90 189.83 147.68 187.38 150.09 185.68 C 147.70 190.36 143.09 193.37 139.44 197.02 C 139.85 196.38 140.68 195.12 141.10 194.48 C 140.19 194.59 138.37 194.80 137.46 194.90 C 139.01 193.05 141.37 192.45 143.47 191.49 Z" />
<path fill="#805d6b" opacity="1.00" d=" M 123.08 193.03 C 125.79 190.73 128.34 187.89 131.94 187.05 C 129.03 189.11 126.09 191.14 123.08 193.03 Z" />
<path fill="#805d6b" opacity="1.00" d=" M 117.94 199.66 L 118.76 200.82 C 120.18 202.88 122.38 204.18 124.06 205.99 C 124.20 208.41 123.22 210.75 121.07 212.01 C 120.44 212.46 119.79 212.89 119.12 213.31 C 122.29 217.00 125.38 220.86 129.77 223.18 C 129.80 222.51 129.87 221.18 129.90 220.51 C 129.94 221.14 130.03 222.40 130.07 223.02 L 131.83 222.29 C 137.32 224.93 142.22 228.76 147.99 230.90 C 150.50 231.59 150.84 234.60 152.07 236.53 C 156.20 235.75 160.26 237.57 162.55 241.05 C 161.54 242.09 160.52 243.13 159.51 244.17 C 152.39 234.85 140.76 230.84 131.96 223.42 C 131.27 223.51 129.89 223.68 129.19 223.77 C 124.90 221.21 121.38 217.61 117.46 214.55 C 117.05 212.48 118.61 208.59 115.74 208.13 C 115.78 208.82 115.84 210.20 115.88 210.90 C 114.25 210.24 112.64 209.61 111.01 208.98 C 111.00 206.99 111.00 205.00 110.99 203.02 C 111.84 202.35 112.70 201.69 113.55 201.03 C 113.94 202.83 114.03 205.01 116.43 205.03 C 116.76 203.19 117.32 201.41 117.94 199.66 Z" />
<path fill="#805d6b" opacity="1.00" d=" M 125.15 204.18 C 128.74 203.25 132.63 208.85 135.60 205.19 C 135.59 205.58 135.55 206.37 135.54 206.76 C 137.24 208.42 138.83 210.19 140.19 212.15 C 135.73 211.70 132.72 207.86 128.44 206.86 C 129.51 208.68 131.39 209.74 133.01 211.00 C 130.04 209.94 126.62 208.58 124.83 205.94 C 124.91 205.50 125.07 204.62 125.15 204.18 Z" />
<path fill="#805d6b" opacity="1.00" d=" M 150.86 220.80 C 151.51 219.95 152.16 219.10 152.82 218.25 C 155.79 219.83 159.60 221.56 159.26 225.62 C 156.40 224.11 153.65 222.43 150.86 220.80 Z" />
<path fill="#805d6b" opacity="1.00" d=" M 149.56 224.98 C 152.84 225.66 156.35 225.90 159.39 227.40 C 160.93 229.81 161.95 233.03 165.34 233.16 C 165.27 231.77 164.81 230.48 164.19 229.26 C 166.23 231.91 170.38 233.34 170.17 237.21 C 169.31 236.24 168.48 235.24 167.65 234.24 C 165.61 234.48 163.40 234.60 161.67 233.30 C 157.62 230.54 153.82 227.42 149.56 224.98 Z" />
<path fill="#805d6b" opacity="1.00" d=" M 179.83 242.05 C 185.51 245.07 191.49 247.52 196.93 250.99 C 203.09 254.73 208.12 260.17 214.75 263.18 C 219.43 264.98 221.67 269.76 224.64 273.44 C 231.67 271.95 235.91 278.49 240.81 282.14 C 244.56 285.57 249.55 288.22 251.50 293.15 C 250.90 293.19 249.69 293.26 249.09 293.29 C 246.73 292.40 245.19 290.31 243.58 288.50 C 242.35 288.34 241.13 288.20 239.90 288.07 C 242.59 290.90 246.14 292.69 248.82 295.54 C 248.15 295.41 246.81 295.16 246.15 295.03 C 234.83 288.58 225.78 278.84 214.42 272.44 C 210.59 270.14 206.28 268.88 202.29 266.91 C 202.22 267.55 202.06 268.85 201.98 269.49 C 197.12 263.89 190.26 260.52 185.24 255.07 C 184.33 254.12 183.88 252.87 183.36 251.69 C 184.70 252.60 186.00 253.58 187.29 254.58 C 190.64 258.62 194.16 263.28 199.65 264.32 C 197.83 262.19 195.90 260.18 193.98 258.14 C 189.52 252.55 184.80 247.19 179.83 242.05 Z" />
<path fill="#805d6b" opacity="1.00" d=" M 270.94 250.01 C 284.61 257.21 299.12 263.27 311.33 272.88 C 306.65 270.75 302.66 267.32 297.76 265.64 C 298.40 266.80 299.06 267.96 299.73 269.12 C 289.39 263.96 280.65 256.20 270.94 250.01 Z" />
<path fill="#805d6b" opacity="1.00" d=" M 208.70 270.72 C 216.77 276.80 224.52 283.30 232.00 290.08 C 227.72 287.82 223.45 285.38 219.78 282.19 C 218.55 281.26 218.10 279.76 217.74 278.35 C 216.04 278.04 214.10 278.27 212.57 277.46 C 211.08 275.34 209.99 272.96 208.70 270.72 Z" />
<path fill="#805d6b" opacity="1.00" d=" M 330.95 286.01 C 333.20 286.68 335.41 288.06 337.84 287.47 C 338.59 287.82 339.35 288.18 340.10 288.54 C 338.41 288.62 336.72 288.73 335.04 288.88 C 333.64 287.96 332.28 287.01 330.95 286.01 Z" />
<path fill="#805d6b" opacity="1.00" d=" M 235.93 291.91 C 239.27 293.44 242.18 295.70 244.98 298.05 C 246.67 299.71 249.27 299.68 251.00 301.29 C 252.43 300.51 253.83 299.69 255.23 298.87 C 255.27 298.44 255.36 297.58 255.40 297.15 C 255.45 296.65 255.56 295.65 255.61 295.15 C 254.73 294.05 253.84 292.95 252.96 291.85 C 253.92 292.50 254.88 293.16 255.84 293.82 C 256.48 293.10 257.76 291.65 258.40 290.92 C 258.45 292.28 258.50 293.65 258.56 295.02 C 261.03 296.74 262.21 299.54 263.69 302.04 L 261.84 301.64 C 261.79 303.46 261.77 305.28 261.65 307.10 C 261.39 307.33 260.85 307.80 260.58 308.03 C 260.51 309.08 260.46 310.14 260.44 311.20 C 259.87 311.19 258.74 311.18 258.17 311.17 C 258.20 312.72 258.25 314.29 258.29 315.84 C 257.47 314.53 256.64 313.22 255.80 311.93 C 255.43 311.37 255.06 310.81 254.69 310.26 C 251.23 312.18 248.62 315.16 245.66 317.70 C 215.49 338.06 186.40 359.97 157.45 382.02 C 150.45 386.83 144.11 392.55 137.02 397.25 C 135.11 397.19 133.05 396.44 131.21 397.30 C 129.77 399.57 130.87 402.38 131.04 404.85 C 137.43 409.78 144.97 412.89 151.47 417.65 C 154.45 419.66 156.07 422.97 158.44 425.57 C 158.42 424.05 158.37 422.53 158.35 421.02 C 160.63 422.26 162.91 423.62 164.54 425.70 C 165.20 427.73 167.21 428.56 168.86 429.62 C 167.25 433.05 164.12 435.93 160.15 435.97 C 148.34 436.49 137.58 430.64 126.97 426.26 C 130.02 426.34 132.48 428.49 135.35 429.28 C 132.91 423.69 127.75 419.82 123.49 415.60 C 118.05 411.98 115.68 405.29 115.39 399.00 C 115.21 395.10 116.34 390.87 119.43 388.29 C 121.34 386.83 123.66 386.04 125.68 384.75 C 145.89 371.71 164.72 356.60 185.62 344.64 C 192.47 339.74 200.82 337.62 207.78 332.97 C 207.88 332.51 208.08 331.58 208.19 331.12 C 213.88 326.79 219.64 322.54 225.71 318.75 C 228.52 316.90 231.57 315.36 233.98 312.96 C 233.90 312.28 233.75 310.91 233.68 310.22 C 238.25 307.25 242.90 304.30 248.09 302.52 C 244.16 298.84 239.57 295.91 235.93 291.91 Z" />
<path fill="#805d6b" opacity="1.00" d=" M 267.64 300.09 C 267.47 298.58 266.83 296.83 268.44 295.86 C 268.91 300.24 268.82 304.65 268.63 309.04 C 266.71 308.74 265.07 307.92 265.27 305.65 C 265.17 305.05 264.95 303.84 264.85 303.24 C 264.72 302.66 264.48 301.50 264.36 300.92 C 265.45 300.64 266.55 300.37 267.64 300.09 Z" />
<path fill="#805d6b" opacity="1.00" d=" M 202.87 330.06 C 203.94 328.07 205.94 327.03 208.05 326.48 C 206.98 328.43 204.77 329.17 202.87 330.06 Z" />
</g>
<g id="#fdd77fff">
<path fill="#fdd77f" opacity="1.00" d=" M 263.24 81.21 C 267.23 80.18 270.74 77.90 274.71 76.81 C 275.75 77.89 276.81 78.97 277.87 80.04 C 274.33 83.08 270.78 86.12 267.29 89.22 C 267.72 89.62 268.57 90.42 269.00 90.83 C 266.78 93.97 264.15 96.85 260.84 98.87 C 261.26 97.53 261.68 96.20 262.11 94.86 C 253.49 97.40 248.50 105.50 242.75 111.77 C 239.32 116.27 233.88 118.29 229.14 121.02 C 229.26 120.32 229.51 118.93 229.63 118.23 C 225.59 121.99 221.47 125.66 217.79 129.77 C 213.59 134.36 208.85 138.62 203.01 141.00 C 201.85 144.15 200.30 147.14 198.35 149.88 C 197.82 149.35 196.76 148.29 196.23 147.76 C 195.00 149.91 194.13 152.49 191.93 153.87 C 186.10 157.82 178.62 158.79 173.46 163.82 C 174.79 163.51 176.12 163.20 177.46 162.89 C 175.35 169.27 168.50 172.95 167.36 179.71 C 169.70 178.01 171.33 175.60 173.03 173.31 C 176.02 172.57 178.88 171.43 181.73 170.29 C 186.91 165.58 191.88 160.66 197.01 155.90 C 197.92 154.66 199.10 156.17 200.04 156.49 C 197.85 157.90 194.26 158.51 194.46 161.85 C 200.18 158.65 203.54 152.39 209.69 149.72 C 209.81 149.12 210.06 147.91 210.18 147.31 C 214.22 144.52 218.33 141.79 222.82 139.78 C 222.69 139.40 222.42 138.65 222.29 138.27 C 230.65 129.39 240.18 121.64 247.85 112.11 C 246.99 114.60 246.12 117.09 245.24 119.58 C 250.53 116.21 256.66 114.26 261.48 110.16 C 259.25 111.17 257.02 112.18 254.76 113.11 C 258.11 107.16 263.81 103.19 269.00 98.98 C 273.43 95.61 277.60 91.93 281.73 88.19 C 281.97 88.56 282.46 89.31 282.70 89.69 C 278.94 93.67 273.83 96.78 271.97 102.19 C 276.76 99.41 280.32 95.09 283.90 90.96 C 294.45 97.13 302.99 106.04 311.82 114.34 C 310.82 115.47 309.81 116.58 308.82 117.70 C 309.74 117.54 311.59 117.21 312.51 117.04 C 310.37 119.69 308.31 122.78 304.90 123.86 C 301.36 125.11 297.87 126.55 294.81 128.75 C 288.99 132.59 285.84 139.42 279.64 142.74 C 277.44 144.13 275.63 146.00 273.69 147.70 C 265.83 154.50 257.54 160.81 250.05 168.03 C 248.53 169.49 246.39 171.95 248.70 173.74 C 244.51 178.06 239.58 181.61 234.15 184.21 C 234.85 182.35 235.57 180.50 236.26 178.64 C 232.38 181.74 228.71 185.11 224.80 188.19 C 225.34 199.49 226.31 210.76 226.98 222.05 C 226.90 223.42 227.49 224.64 228.66 225.37 C 235.54 230.51 242.57 235.44 249.59 240.39 C 254.33 243.78 259.70 246.16 264.63 249.27 C 264.71 247.83 264.98 246.42 265.44 245.06 C 257.12 242.96 252.10 235.19 244.80 231.33 C 240.39 232.62 236.65 228.19 237.26 223.97 C 234.67 222.59 232.06 221.23 229.50 219.80 C 228.98 211.51 228.37 203.23 227.80 194.95 C 227.45 193.09 228.45 191.48 229.29 189.91 C 229.69 199.02 230.58 208.10 230.98 217.21 C 234.83 219.33 239.01 220.83 242.71 223.24 C 245.89 225.22 248.03 228.50 251.38 230.27 C 251.69 229.50 252.31 227.96 252.62 227.19 C 258.67 229.84 263.07 234.91 268.40 238.65 C 280.55 247.75 294.05 254.93 305.91 264.44 C 306.38 264.09 307.31 263.37 307.78 263.02 C 310.11 265.42 312.27 267.98 314.59 270.39 C 317.30 273.21 321.34 273.92 324.87 275.24 C 328.26 276.23 331.18 278.26 334.14 280.13 C 329.13 274.59 322.39 271.01 317.22 265.64 C 328.03 265.22 331.13 279.65 341.88 279.37 C 338.73 273.87 331.56 272.79 327.68 267.91 C 328.26 267.85 329.42 267.73 330.01 267.67 C 333.42 269.41 336.03 272.40 339.43 274.21 C 337.79 271.07 334.46 269.56 332.24 266.96 C 332.55 266.97 333.16 267.00 333.47 267.01 C 334.17 267.33 335.56 267.96 336.25 268.27 C 338.55 271.26 342.30 272.55 345.26 274.74 C 351.39 278.38 356.86 283.16 363.43 285.99 C 365.10 286.93 366.72 287.96 368.29 289.07 C 361.85 290.31 356.15 286.29 350.53 283.83 C 352.96 286.59 355.82 288.92 358.94 290.87 C 359.43 290.71 360.41 290.41 360.91 290.26 C 364.23 291.40 367.71 291.90 371.11 292.73 C 374.78 293.62 377.64 296.24 380.26 298.81 C 378.38 300.21 376.35 301.41 374.18 302.31 C 373.51 301.08 372.85 299.87 372.18 298.65 C 370.01 300.55 367.88 302.50 365.76 304.46 C 367.16 304.46 368.56 304.48 369.96 304.50 C 368.03 306.35 365.96 308.03 363.78 309.56 C 360.60 306.90 358.46 303.09 354.90 300.92 C 354.10 300.92 352.51 300.93 351.71 300.93 C 354.01 302.86 356.61 304.41 358.90 306.37 C 358.89 308.03 356.25 308.11 355.34 309.32 C 349.07 315.53 343.68 322.58 337.58 328.96 C 335.49 330.05 333.42 331.19 331.42 332.44 C 320.75 340.20 310.53 348.60 299.69 356.14 C 298.62 356.53 297.61 357.01 296.64 357.59 C 259.34 384.33 221.90 410.90 184.60 437.65 C 183.74 438.14 182.66 439.37 181.69 438.29 C 175.94 434.14 170.31 429.82 164.54 425.70 C 162.91 423.62 160.63 422.26 158.35 421.02 C 149.38 414.59 140.61 407.88 131.65 401.45 C 133.36 399.95 135.12 398.51 137.02 397.25 C 144.11 392.55 150.45 386.83 157.45 382.02 C 161.28 380.18 164.56 377.45 168.00 375.01 C 197.26 353.98 226.52 332.94 255.80 311.93 C 256.64 313.22 257.47 314.53 258.29 315.84 C 258.25 314.29 258.20 312.72 258.17 311.17 C 258.74 311.18 259.87 311.19 260.44 311.20 C 260.46 310.14 260.51 309.08 260.58 308.03 C 260.85 307.80 261.39 307.33 261.65 307.10 C 262.85 306.60 264.06 306.12 265.27 305.65 C 265.07 307.92 266.71 308.74 268.63 309.04 C 268.82 304.65 268.91 300.24 268.44 295.86 C 266.83 296.83 267.47 298.58 267.64 300.09 C 266.55 300.37 265.45 300.64 264.36 300.92 C 264.48 301.50 264.72 302.66 264.85 303.24 C 264.56 302.94 263.98 302.34 263.69 302.04 C 262.21 299.54 261.03 296.74 258.56 295.02 C 258.50 293.65 258.45 292.28 258.40 290.92 C 257.76 291.65 256.48 293.10 255.84 293.82 C 254.88 293.16 253.92 292.50 252.96 291.85 C 253.84 292.95 254.73 294.05 255.61 295.15 C 255.56 295.65 255.45 296.65 255.40 297.15 C 253.28 295.89 251.17 294.61 249.09 293.29 C 249.69 293.26 250.90 293.19 251.50 293.15 C 249.55 288.22 244.56 285.57 240.81 282.14 C 235.91 278.49 231.67 271.95 224.64 273.44 C 221.67 269.76 219.43 264.98 214.75 263.18 C 208.12 260.17 203.09 254.73 196.93 250.99 C 191.49 247.52 185.51 245.07 179.83 242.05 C 184.80 247.19 189.52 252.55 193.98 258.14 C 191.83 256.80 189.54 255.72 187.29 254.58 C 186.00 253.58 184.70 252.60 183.36 251.69 C 162.67 238.35 141.63 225.54 121.07 212.01 C 123.22 210.75 124.20 208.41 124.06 205.99 C 122.38 204.18 120.18 202.88 118.76 200.82 C 127.20 194.18 135.18 186.97 143.71 180.46 C 144.02 180.21 144.32 179.94 144.61 179.67 C 147.19 177.27 149.87 174.96 152.69 172.85 C 156.29 171.10 159.83 168.91 161.78 165.26 C 168.56 159.40 175.78 154.03 182.33 147.89 C 182.55 147.83 183.00 147.71 183.22 147.64 C 182.72 148.91 182.21 150.18 181.70 151.45 C 188.57 145.71 195.30 139.80 202.76 134.84 C 202.72 134.42 202.62 133.59 202.58 133.17 C 209.23 127.56 214.64 120.61 221.57 115.33 C 223.43 114.04 225.24 112.69 226.96 111.23 L 227.02 112.75 C 233.61 109.40 239.20 104.48 244.97 99.93 C 249.37 96.23 253.97 92.75 258.18 88.84 C 255.80 90.23 253.46 92.00 250.56 91.98 C 254.48 88.05 258.91 84.66 263.24 81.21 M 218.21 121.14 C 216.15 123.85 213.82 126.37 211.95 129.24 C 217.65 124.39 223.26 119.34 228.35 113.85 C 224.75 115.91 220.64 117.59 218.21 121.14 M 223.59 139.30 C 227.53 137.34 232.17 135.15 233.11 130.36 C 229.84 133.23 226.93 136.49 223.59 139.30 M 165.93 173.01 C 161.13 177.93 155.25 181.72 150.81 187.00 C 149.63 188.08 150.28 189.63 151.01 190.76 C 156.59 185.42 162.47 180.04 165.93 173.01 M 143.47 191.49 C 141.37 192.45 139.01 193.05 137.46 194.90 C 138.37 194.80 140.19 194.59 141.10 194.48 C 140.68 195.12 139.85 196.38 139.44 197.02 C 143.09 193.37 147.70 190.36 150.09 185.68 C 147.68 187.38 145.90 189.83 143.47 191.49 M 125.15 204.18 C 125.07 204.62 124.91 205.50 124.83 205.94 C 126.62 208.58 130.04 209.94 133.01 211.00 C 131.39 209.74 129.51 208.68 128.44 206.86 C 132.72 207.86 135.73 211.70 140.19 212.15 C 138.83 210.19 137.24 208.42 135.54 206.76 C 135.55 206.37 135.59 205.58 135.60 205.19 C 132.63 208.85 128.74 203.25 125.15 204.18 M 150.86 220.80 C 153.65 222.43 156.40 224.11 159.26 225.62 C 159.60 221.56 155.79 219.83 152.82 218.25 C 152.16 219.10 151.51 219.95 150.86 220.80 M 149.56 224.98 C 153.82 227.42 157.62 230.54 161.67 233.30 C 163.40 234.60 165.61 234.48 167.65 234.24 C 168.48 235.24 169.31 236.24 170.17 237.21 C 170.38 233.34 166.23 231.91 164.19 229.26 C 164.81 230.48 165.27 231.77 165.34 233.16 C 161.95 233.03 160.93 229.81 159.39 227.40 C 156.35 225.90 152.84 225.66 149.56 224.98 M 270.94 250.01 C 280.65 256.20 289.39 263.96 299.73 269.12 C 299.06 267.96 298.40 266.80 297.76 265.64 C 302.66 267.32 306.65 270.75 311.33 272.88 C 299.12 263.27 284.61 257.21 270.94 250.01 M 330.95 286.01 C 332.28 287.01 333.64 287.96 335.04 288.88 C 336.72 288.73 338.41 288.62 340.10 288.54 C 339.35 288.18 338.59 287.82 337.84 287.47 C 335.41 288.06 333.20 286.68 330.95 286.01 Z" />
<path fill="#fdd77f" opacity="1.00" d=" M 322.69 260.48 C 325.71 262.06 328.89 263.53 331.32 265.99 C 327.77 265.72 324.21 263.83 322.69 260.48 Z" />
</g>
</svg>
