<?xml version="1.0" encoding="UTF-8" ?>
<!DOCTYPE svg PUBLIC "-//W3C//DTD SVG 1.1//EN" "http://www.w3.org/Graphics/SVG/1.1/DTD/svg11.dtd">
<svg width="500pt" height="500pt" viewBox="0 0 500 500" version="1.1" xmlns="http://www.w3.org/2000/svg">
<g id="#f5f5dcff">
<path fill="#f5f5dc" opacity="1.00" d=" M 0.00 0.00 L 500.00 0.00 L 500.00 500.00 L 0.00 500.00 L 0.00 0.00 M 275.97 65.92 C 269.08 71.95 262.32 78.14 255.82 84.59 C 257.92 83.46 260.05 82.38 262.31 81.59 C 258.49 85.23 254.17 88.30 250.47 92.06 C 248.23 92.33 246.01 92.77 243.80 93.22 C 240.47 99.63 232.92 102.01 227.92 106.88 C 226.39 107.88 227.07 109.82 226.95 111.33 C 225.23 112.65 223.44 113.89 221.70 115.18 C 216.42 115.56 213.10 120.31 209.18 123.30 C 209.40 123.71 209.83 124.53 210.05 124.94 C 206.36 127.22 202.52 129.34 199.45 132.46 C 196.48 135.43 193.51 138.48 189.79 140.53 C 191.49 138.33 193.32 136.24 194.97 134.00 C 189.32 136.58 186.77 143.99 180.09 144.47 C 178.61 144.77 178.94 147.05 178.24 148.12 C 179.28 148.06 181.38 147.94 182.42 147.88 C 175.76 153.98 168.50 159.39 161.74 165.37 C 162.73 160.26 167.73 158.25 171.92 156.30 C 171.97 155.09 172.02 153.89 172.06 152.69 C 167.99 154.89 164.62 158.11 161.15 161.13 C 157.55 164.44 153.60 167.98 152.59 173.01 C 149.73 175.03 147.06 177.34 144.43 179.65 C 144.98 175.45 147.61 172.12 150.49 169.21 C 145.66 172.36 141.07 176.47 139.53 182.25 C 140.40 181.67 142.12 180.51 142.98 179.93 C 141.03 182.96 137.99 184.95 135.28 187.22 C 129.77 191.76 124.34 196.39 118.76 200.83 L 117.75 199.62 C 117.11 202.20 116.65 204.80 116.30 207.43 C 114.91 205.50 114.08 203.29 113.40 201.05 C 112.60 201.71 111.80 202.37 111.01 203.04 C 111.00 205.02 111.00 207.00 111.00 208.98 C 112.65 209.62 114.30 210.24 115.94 210.89 C 115.86 209.72 115.68 207.36 115.60 206.18 C 117.90 208.37 117.38 211.69 117.50 214.53 C 121.37 217.80 125.17 221.14 129.31 224.05 C 129.97 223.88 131.28 223.53 131.93 223.35 C 140.74 230.82 152.31 234.88 159.57 244.14 C 160.58 243.10 161.59 242.06 162.60 241.02 C 160.20 237.57 156.22 235.89 152.07 236.43 C 150.84 234.25 150.12 231.29 147.35 230.62 C 141.79 228.47 137.07 224.72 131.64 222.31 C 131.26 221.89 130.50 221.06 130.12 220.65 C 129.31 221.26 128.49 221.86 127.67 222.46 C 124.73 219.55 121.86 216.57 119.20 213.40 C 119.82 212.96 120.42 212.50 121.02 212.03 C 141.61 225.46 162.59 238.31 183.25 251.64 C 187.21 259.68 196.51 262.79 202.02 269.53 C 202.09 268.87 202.22 267.56 202.28 266.91 C 206.34 268.82 210.64 270.21 214.52 272.49 C 225.12 278.56 233.81 287.35 244.10 293.89 C 245.54 294.86 247.24 295.29 248.92 295.68 C 246.11 292.85 242.71 290.73 239.78 288.04 C 241.03 288.15 242.28 288.27 243.54 288.39 C 245.19 290.13 246.61 292.36 248.99 293.16 C 251.08 294.56 253.23 295.87 255.40 297.16 C 255.36 297.59 255.27 298.46 255.23 298.89 C 253.86 299.67 252.48 300.44 251.11 301.22 C 245.20 299.19 241.14 294.18 235.51 291.65 C 239.45 295.55 243.89 298.89 248.16 302.43 C 243.23 304.52 238.11 306.70 234.12 310.34 C 233.64 311.96 233.63 314.00 231.86 314.82 C 224.14 319.69 216.49 324.68 209.27 330.26 C 208.33 330.98 207.80 331.94 207.68 333.15 C 201.27 337.17 193.90 339.32 187.55 343.44 C 181.56 347.17 175.47 350.73 169.51 354.51 C 155.49 364.11 141.75 374.11 127.60 383.52 C 124.98 385.35 121.96 386.51 119.36 388.37 C 116.03 391.13 115.10 395.79 115.43 399.93 C 115.94 405.63 118.04 411.66 122.89 415.10 C 127.51 419.38 132.59 423.57 135.49 429.27 C 132.59 428.20 129.82 426.85 126.93 425.78 C 135.96 430.60 145.70 434.70 155.92 435.96 C 160.62 436.65 167.06 435.27 168.21 429.90 L 168.27 428.84 C 173.48 431.56 177.76 435.83 182.74 438.98 C 217.15 414.31 251.66 389.78 286.10 365.15 C 288.73 363.08 291.52 361.21 294.61 359.91 C 280.89 370.40 266.94 380.61 253.72 391.73 C 251.17 393.85 248.75 396.15 246.91 398.93 C 258.95 390.57 270.41 381.32 282.84 373.54 C 280.88 376.63 277.71 378.58 274.96 380.87 C 264.26 389.52 253.31 397.85 242.47 406.32 C 241.87 409.15 239.83 411.19 237.82 413.11 C 237.76 413.73 237.64 414.98 237.58 415.61 C 228.15 423.46 218.26 430.77 207.74 437.11 C 211.14 435.87 214.37 434.24 217.58 432.60 C 236.46 422.91 254.75 412.02 272.10 399.80 C 275.71 397.28 279.81 395.08 281.94 391.02 C 277.72 392.01 275.23 396.16 270.95 397.07 C 270.93 394.31 273.06 392.56 274.99 390.95 C 275.43 391.16 276.32 391.56 276.76 391.77 C 277.63 390.91 279.38 389.19 280.26 388.33 C 279.19 388.76 277.05 389.62 275.98 390.05 C 281.37 386.45 285.83 381.61 289.16 376.07 C 290.23 374.13 292.14 372.96 294.01 371.89 C 326.22 352.68 351.71 323.75 385.40 306.83 C 386.17 304.42 387.51 302.26 388.47 299.93 C 389.34 296.77 388.79 292.97 386.42 290.58 C 383.39 289.20 380.06 288.68 376.89 287.70 C 376.31 286.44 375.72 285.18 375.11 283.94 C 367.79 280.52 361.47 275.30 354.62 271.04 C 354.19 271.17 353.33 271.44 352.90 271.58 C 344.94 265.09 334.74 261.61 327.87 253.74 C 325.64 253.38 323.38 253.15 321.11 253.10 C 314.47 247.86 307.57 242.96 300.42 238.44 C 286.61 229.49 271.94 221.56 259.98 210.10 C 259.45 210.46 258.41 211.17 257.88 211.52 C 256.32 210.62 254.77 209.71 253.22 208.80 C 253.75 208.40 254.81 207.61 255.33 207.21 C 252.54 206.90 249.84 206.11 247.25 205.04 C 257.39 195.81 268.25 187.43 279.02 178.96 C 297.00 165.53 314.40 151.29 330.71 135.87 C 330.72 134.68 330.85 133.51 331.10 132.36 C 334.76 129.14 339.86 127.84 343.03 124.01 C 346.29 119.66 345.84 113.66 344.19 108.77 C 342.45 106.25 339.70 104.63 337.46 102.58 C 324.72 91.63 312.25 80.37 299.60 69.31 C 296.93 67.33 294.27 65.32 292.33 62.58 C 290.48 59.93 286.86 60.26 284.06 60.68 C 280.60 60.92 278.44 63.88 275.97 65.92 M 122.99 193.06 C 125.99 191.25 128.94 189.33 131.49 186.90 C 128.30 188.43 125.59 190.71 122.99 193.06 M 208.25 270.27 C 209.75 272.63 210.97 275.19 212.64 277.45 C 214.14 278.18 215.94 278.07 217.58 278.38 C 219.90 284.60 226.94 286.85 232.10 290.19 C 224.48 283.17 216.42 276.64 208.25 270.27 M 205.60 327.10 C 204.72 327.66 202.96 328.43 203.25 329.71 C 204.78 329.94 206.19 328.73 207.32 327.83 C 208.59 326.57 206.22 326.39 205.60 327.10 Z" />
<path fill="#f5f5dc" opacity="1.00" d=" M 187.26 254.53 C 189.52 255.75 191.84 256.86 194.05 258.17 C 196.00 260.23 197.91 262.32 199.74 264.49 C 194.28 263.12 190.61 258.71 187.26 254.53 Z" />
<path fill="#f5f5dc" opacity="1.00" d=" M 324.31 260.32 C 328.07 261.93 331.52 264.21 334.54 266.97 C 333.73 266.81 332.10 266.48 331.29 266.32 L 331.61 267.80 L 330.90 266.69 C 329.19 264.11 326.66 262.25 324.31 260.32 Z" />
<path fill="#f5f5dc" opacity="1.00" d=" M 337.47 264.89 C 342.51 268.25 347.94 271.04 352.66 274.86 C 351.66 275.01 349.65 275.32 348.64 275.47 C 352.35 277.99 355.95 280.68 359.54 283.37 C 351.72 279.51 344.57 274.39 337.46 269.38 L 337.86 269.10 C 337.76 268.05 337.57 265.95 337.47 264.89 Z" />
<path fill="#f5f5dc" opacity="1.00" d=" M 261.89 301.49 L 263.89 302.01 C 264.13 302.32 264.61 302.95 264.85 303.26 C 264.96 303.85 265.17 305.02 265.28 305.61 C 264.07 306.13 262.87 306.67 261.68 307.22 C 261.79 305.31 261.82 303.40 261.89 301.49 Z" />
<path fill="#f5f5dc" opacity="1.00" d=" M 248.29 315.31 C 250.25 313.34 252.51 311.73 254.84 310.24 C 255.09 310.65 255.59 311.47 255.83 311.88 C 229.69 330.70 203.51 349.47 177.36 368.28 C 173.90 370.89 170.39 373.49 166.41 375.28 C 189.48 357.62 212.84 340.32 236.73 323.78 C 240.62 321.01 244.88 318.70 248.29 315.31 Z" />
<path fill="#f5f5dc" opacity="1.00" d=" M 331.64 332.21 C 332.95 331.05 334.61 330.32 336.38 330.32 C 335.33 331.79 333.43 334.12 331.64 332.21 Z" />
<path fill="#f5f5dc" opacity="1.00" d=" M 131.09 397.26 C 133.09 396.77 135.15 397.10 137.18 397.17 C 135.28 398.52 133.43 399.95 131.60 401.39 C 140.52 407.81 149.24 414.52 158.20 420.88 C 158.29 422.51 158.38 424.14 158.48 425.78 C 155.94 422.26 153.38 418.59 149.59 416.30 C 143.44 412.35 136.82 409.17 130.93 404.81 C 130.78 402.31 130.08 399.67 131.09 397.26 Z" />
<path fill="#f5f5dc" opacity="1.00" d=" M 164.84 425.75 C 166.14 426.13 166.89 426.99 167.06 428.34 C 165.56 428.12 164.81 427.26 164.84 425.75 Z" />
</g>
<g id="#805d6bff">
<path fill="#805d6b" opacity="1.00" d=" M 275.97 65.92 C 278.44 63.88 280.60 60.92 284.06 60.68 C 286.86 60.26 290.48 59.93 292.33 62.58 C 294.27 65.32 296.93 67.33 299.60 69.31 C 312.25 80.37 324.72 91.63 337.46 102.58 C 339.70 104.63 342.45 106.25 344.19 108.77 C 345.84 113.66 346.29 119.66 343.03 124.01 C 339.86 127.84 334.76 129.14 331.10 132.36 C 330.85 133.51 330.72 134.68 330.71 135.87 C 314.40 151.29 297.00 165.53 279.02 178.96 C 268.25 187.43 257.39 195.81 247.25 205.04 C 249.84 206.11 252.54 206.90 255.33 207.21 C 254.81 207.61 253.75 208.40 253.22 208.80 C 254.77 209.71 256.32 210.62 257.88 211.52 C 258.41 211.17 259.45 210.46 259.98 210.10 C 271.94 221.56 286.61 229.49 300.42 238.44 C 307.57 242.96 314.47 247.86 321.11 253.10 C 323.38 253.15 325.64 253.38 327.87 253.74 C 334.74 261.61 344.94 265.09 352.90 271.58 C 353.33 271.44 354.19 271.17 354.62 271.04 C 361.47 275.30 367.79 280.52 375.11 283.94 C 375.72 285.18 376.31 286.44 376.89 287.70 C 380.06 288.68 383.39 289.20 386.42 290.58 C 388.79 292.97 389.34 296.77 388.47 299.93 C 387.51 302.26 386.17 304.42 385.40 306.83 C 351.71 323.75 326.22 352.68 294.01 371.89 C 292.14 372.96 290.23 374.13 289.16 376.07 C 285.83 381.61 281.37 386.45 275.98 390.05 C 277.05 389.62 279.19 388.76 280.26 388.33 C 279.38 389.19 277.63 390.91 276.76 391.77 C 276.32 391.56 275.43 391.16 274.99 390.95 C 273.06 392.56 270.93 394.31 270.95 397.07 C 275.23 396.16 277.72 392.01 281.94 391.02 C 279.81 395.08 275.71 397.28 272.10 399.80 C 254.75 412.02 236.46 422.91 217.58 432.60 C 214.37 434.24 211.14 435.87 207.74 437.11 C 218.26 430.77 228.15 423.46 237.58 415.61 C 237.64 414.98 237.76 413.73 237.82 413.11 C 239.83 411.19 241.87 409.15 242.47 406.32 C 253.31 397.85 264.26 389.52 274.96 380.87 C 277.71 378.58 280.88 376.63 282.84 373.54 C 270.41 381.32 258.95 390.57 246.91 398.93 C 248.75 396.15 251.17 393.85 253.72 391.73 C 266.94 380.61 280.89 370.40 294.61 359.91 C 307.15 350.95 319.30 341.45 331.64 332.21 C 333.43 334.12 335.33 331.79 336.38 330.32 C 341.96 324.26 347.30 317.97 352.82 311.84 C 354.66 309.72 357.05 308.23 359.30 306.60 C 356.76 304.58 354.03 302.82 351.55 300.73 C 357.37 300.25 359.93 306.36 363.70 309.64 C 365.87 307.98 368.01 306.26 370.08 304.48 C 368.98 304.48 366.78 304.50 365.67 304.51 C 367.85 302.54 370.02 300.58 372.22 298.64 C 372.89 299.90 373.55 301.16 374.22 302.43 C 376.29 301.26 378.33 300.05 380.36 298.80 C 376.99 295.40 372.88 292.64 368.06 291.98 C 363.72 290.60 358.47 291.45 354.94 288.10 C 353.22 286.67 351.64 285.09 350.04 283.54 C 355.81 286.31 361.69 290.03 368.39 289.24 C 365.52 287.16 362.54 285.24 359.54 283.37 C 355.95 280.68 352.35 277.99 348.64 275.47 C 349.65 275.32 351.66 275.01 352.66 274.86 C 347.94 271.04 342.51 268.25 337.47 264.89 C 337.57 265.95 337.76 268.05 337.86 269.10 L 337.46 269.38 C 336.45 268.59 335.51 267.77 334.54 266.97 C 331.52 264.21 328.07 261.93 324.31 260.32 C 323.47 259.92 322.62 259.53 321.78 259.17 C 323.50 263.01 327.14 265.19 330.90 266.69 L 331.61 267.80 L 331.29 266.32 C 334.30 268.83 337.44 271.26 339.76 274.47 C 336.31 272.33 333.15 269.77 329.98 267.25 C 329.44 267.58 328.35 268.24 327.81 268.57 C 332.40 272.44 338.54 274.40 342.12 279.41 C 334.89 279.55 330.76 273.24 325.96 268.96 C 323.57 266.61 320.20 265.96 317.01 265.53 C 322.44 270.84 329.05 274.76 334.36 280.21 C 331.32 278.32 328.28 276.33 324.85 275.24 C 321.12 273.86 316.87 273.04 314.15 269.90 C 311.81 267.33 309.43 264.78 306.73 262.58 C 306.56 263.07 306.23 264.04 306.06 264.52 C 291.70 253.08 274.99 244.89 261.13 232.79 C 258.56 230.50 255.60 228.74 252.58 227.13 C 252.25 227.95 251.58 229.61 251.25 230.44 C 247.56 227.57 244.44 223.92 240.23 221.77 C 237.29 220.11 233.91 219.18 231.25 217.06 C 230.11 208.02 229.99 198.87 229.20 189.79 C 228.35 191.73 227.56 193.78 227.85 195.95 C 228.41 203.90 229.02 211.85 229.50 219.81 C 232.03 221.18 234.57 222.54 237.09 223.94 C 237.32 226.51 237.95 229.31 240.34 230.76 C 242.27 231.79 244.78 230.90 246.60 232.29 C 252.85 236.56 257.85 242.99 265.42 245.07 C 265.16 246.48 264.90 247.89 264.65 249.30 C 259.69 246.19 254.34 243.75 249.56 240.36 C 242.00 235.04 234.42 229.75 227.09 224.12 C 226.68 212.19 224.96 200.26 225.08 188.36 C 228.48 184.67 232.68 181.83 236.40 178.46 C 235.64 180.37 234.88 182.28 234.14 184.19 C 239.51 181.64 244.35 178.11 248.58 173.94 C 246.39 170.97 249.60 168.46 251.56 166.56 C 260.14 158.76 269.28 151.60 278.02 143.99 C 282.02 141.42 285.59 138.29 288.57 134.57 C 292.59 129.59 298.15 126.12 304.20 124.13 C 307.95 123.01 310.38 119.82 312.67 116.87 C 311.66 117.13 309.63 117.65 308.62 117.91 C 309.68 116.73 310.77 115.56 311.84 114.39 C 303.04 106.02 294.44 97.20 283.93 90.94 C 280.32 95.17 276.61 99.44 271.78 102.32 C 273.96 97.00 278.73 93.61 282.70 89.72 C 282.45 89.34 281.95 88.57 281.70 88.19 C 278.10 91.47 274.47 94.72 270.62 97.70 C 264.72 102.42 258.31 106.87 254.41 113.52 C 256.83 112.35 259.24 111.15 261.68 110.00 C 256.71 114.19 250.44 116.26 245.05 119.78 C 246.02 117.24 246.96 114.69 247.86 112.12 C 240.14 121.63 230.66 129.45 222.23 138.29 C 222.39 138.65 222.70 139.37 222.86 139.73 C 218.40 141.83 214.24 144.49 210.20 147.29 C 210.07 147.88 209.81 149.07 209.68 149.66 C 203.67 152.66 199.86 158.41 194.41 162.14 C 194.41 158.88 197.59 157.85 199.90 156.48 C 199.16 156.01 198.43 155.55 197.70 155.08 C 192.53 160.32 187.07 165.25 181.75 170.31 C 178.86 171.40 175.98 172.48 173.05 173.40 C 171.28 175.70 169.43 177.93 167.32 179.92 C 168.58 173.10 175.07 169.17 177.59 162.91 C 176.11 163.22 174.63 163.52 173.15 163.82 C 178.28 159.45 184.93 157.85 190.71 154.65 C 193.55 153.27 194.88 150.29 196.35 147.68 C 196.85 148.27 197.84 149.43 198.34 150.01 C 200.19 147.16 201.77 144.16 203.08 141.04 C 214.14 136.23 220.56 125.46 229.76 118.17 C 229.57 118.90 229.20 120.35 229.01 121.07 C 233.64 118.49 238.83 116.44 242.31 112.26 C 248.26 105.77 253.38 97.52 262.24 94.75 C 261.69 96.24 261.14 97.73 260.60 99.22 C 263.86 96.90 266.70 94.05 269.08 90.84 C 268.62 90.44 267.71 89.64 267.25 89.24 C 270.77 86.15 274.31 83.08 277.88 80.05 C 276.79 78.94 275.72 77.84 274.64 76.73 C 270.55 78.39 266.47 80.10 262.31 81.59 C 260.05 82.38 257.92 83.46 255.82 84.59 C 262.32 78.14 269.08 71.95 275.97 65.92 Z" />
<path fill="#805d6b" opacity="1.00" d=" M 252.84 91.75 C 254.73 90.88 256.53 89.81 258.35 88.79 C 248.17 97.14 238.43 106.23 227.00 112.86 L 226.95 111.33 C 227.07 109.82 226.39 107.88 227.92 106.88 C 232.92 102.01 240.47 99.63 243.80 93.22 C 246.01 92.77 248.23 92.33 250.47 92.06 C 251.07 91.99 252.25 91.83 252.84 91.75 Z" />
<path fill="#805d6b" opacity="1.00" d=" M 218.67 120.58 C 221.24 117.29 225.21 115.65 228.73 113.62 C 223.35 119.15 217.64 124.38 211.81 129.43 C 213.94 126.36 216.31 123.47 218.67 120.58 Z" />
<path fill="#805d6b" opacity="1.00" d=" M 209.18 123.30 C 213.10 120.31 216.42 115.56 221.70 115.18 C 214.81 120.57 209.27 127.45 202.62 133.12 C 202.65 133.56 202.71 134.44 202.73 134.88 C 195.12 139.93 188.24 145.95 181.29 151.86 C 181.96 150.46 182.64 149.06 183.32 147.66 C 183.10 147.71 182.65 147.82 182.42 147.88 C 181.38 147.94 179.28 148.06 178.24 148.12 C 178.94 147.05 178.61 144.77 180.09 144.47 C 186.77 143.99 189.32 136.58 194.97 134.00 C 193.32 136.24 191.49 138.33 189.79 140.53 C 193.51 138.48 196.48 135.43 199.45 132.46 C 202.52 129.34 206.36 127.22 210.05 124.94 C 209.83 124.53 209.40 123.71 209.18 123.30 Z" />
<path fill="#805d6b" opacity="1.00" d=" M 223.10 139.69 C 226.73 136.60 230.06 133.19 233.49 129.89 C 232.22 135.02 227.38 137.45 223.10 139.69 Z" />
<path fill="#805d6b" opacity="1.00" d=" M 161.15 161.13 C 164.62 158.11 167.99 154.89 172.06 152.69 C 172.02 153.89 171.97 155.09 171.92 156.30 C 167.73 158.25 162.73 160.26 161.74 165.37 C 159.66 168.93 156.14 171.13 152.59 173.01 C 153.60 167.98 157.55 164.44 161.15 161.13 Z" />
<path fill="#805d6b" opacity="1.00" d=" M 139.53 182.25 C 141.07 176.47 145.66 172.36 150.49 169.21 C 147.61 172.12 144.98 175.45 144.43 179.65 C 144.32 180.00 144.11 180.70 144.00 181.05 C 143.75 180.77 143.24 180.21 142.98 179.93 C 142.12 180.51 140.40 181.67 139.53 182.25 Z" />
<path fill="#805d6b" opacity="1.00" d=" M 150.80 187.04 C 155.34 181.64 161.32 177.69 166.32 172.73 C 162.39 179.75 156.72 185.53 150.82 190.91 C 150.55 189.65 149.63 188.14 150.80 187.04 Z" />
<path fill="#805d6b" opacity="1.00" d=" M 143.98 191.06 C 146.21 189.38 148.05 187.24 150.29 185.55 C 147.56 190.26 143.08 193.52 139.23 197.23 C 139.78 196.53 140.87 195.13 141.42 194.42 C 140.37 194.54 138.27 194.77 137.22 194.89 C 139.26 193.24 141.72 192.33 143.98 191.06 Z" />
<path fill="#805d6b" opacity="1.00" d=" M 122.99 193.06 C 125.59 190.71 128.30 188.43 131.49 186.90 C 128.94 189.33 125.99 191.25 122.99 193.06 Z" />
<path fill="#805d6b" opacity="1.00" d=" M 117.75 199.62 L 118.76 200.83 C 120.38 202.84 122.38 204.48 124.42 206.04 C 123.82 208.31 123.15 210.70 121.02 212.03 C 120.42 212.50 119.82 212.96 119.20 213.40 C 121.86 216.57 124.73 219.55 127.67 222.46 C 128.49 221.86 129.31 221.26 130.12 220.65 C 130.50 221.06 131.26 221.89 131.64 222.31 C 137.07 224.72 141.79 228.47 147.35 230.62 C 150.12 231.29 150.84 234.25 152.07 236.43 C 156.22 235.89 160.20 237.57 162.60 241.02 C 161.59 242.06 160.58 243.10 159.57 244.14 C 152.31 234.88 140.74 230.82 131.93 223.35 C 131.28 223.53 129.97 223.88 129.31 224.05 C 125.17 221.14 121.37 217.80 117.50 214.53 C 117.38 211.69 117.90 208.37 115.60 206.18 C 115.68 207.36 115.86 209.72 115.94 210.89 C 114.30 210.24 112.65 209.62 111.00 208.98 C 111.00 207.00 111.00 205.02 111.01 203.04 C 111.80 202.37 112.60 201.71 113.40 201.05 C 114.08 203.29 114.91 205.50 116.30 207.43 C 116.65 204.80 117.11 202.20 117.75 199.62 Z" />
<path fill="#805d6b" opacity="1.00" d=" M 124.85 205.91 C 124.50 202.93 127.48 204.30 129.02 205.00 C 131.12 205.74 133.77 207.53 135.63 205.35 C 135.59 205.67 135.51 206.30 135.46 206.62 C 137.19 208.40 138.82 210.27 140.29 212.28 C 135.52 211.33 132.01 207.57 127.30 206.43 C 129.18 208.04 131.14 209.60 133.08 211.16 C 130.19 209.78 126.59 208.73 124.85 205.91 Z" />
<path fill="#805d6b" opacity="1.00" d=" M 150.78 220.73 C 151.45 219.90 152.13 219.07 152.81 218.24 C 155.92 219.81 159.43 221.69 159.43 225.72 C 156.49 224.15 153.64 222.43 150.78 220.73 Z" />
<path fill="#805d6b" opacity="1.00" d=" M 149.24 224.78 C 152.49 225.54 155.84 225.97 158.99 227.14 C 160.88 229.42 161.85 232.71 165.17 233.30 C 165.21 232.58 165.29 231.13 165.33 230.40 C 167.47 232.34 170.17 234.13 170.37 237.32 C 169.43 236.32 168.52 235.32 167.60 234.31 C 165.58 234.35 163.39 234.58 161.67 233.29 C 157.51 230.48 153.61 227.28 149.24 224.78 Z" />
<path fill="#805d6b" opacity="1.00" d=" M 179.53 241.81 C 185.05 244.92 190.98 247.26 196.35 250.64 C 202.73 254.44 207.93 259.99 214.72 263.16 C 219.27 265.07 221.69 269.57 224.55 273.30 C 228.43 272.97 232.26 274.18 234.96 277.05 C 240.48 282.57 247.79 286.39 251.88 293.24 C 251.16 293.22 249.71 293.18 248.99 293.16 C 246.61 292.36 245.19 290.13 243.54 288.39 C 242.28 288.27 241.03 288.15 239.78 288.04 C 242.71 290.73 246.11 292.85 248.92 295.68 C 247.24 295.29 245.54 294.86 244.10 293.89 C 233.81 287.35 225.12 278.56 214.52 272.49 C 210.64 270.21 206.34 268.82 202.28 266.91 C 202.22 267.56 202.09 268.87 202.02 269.53 C 196.51 262.79 187.21 259.68 183.25 251.64 C 184.60 252.57 185.94 253.54 187.26 254.53 C 190.61 258.71 194.28 263.12 199.74 264.49 C 197.91 262.32 196.00 260.23 194.05 258.17 C 189.41 252.54 184.70 246.97 179.53 241.81 Z" />
<path fill="#805d6b" opacity="1.00" d=" M 270.79 249.97 C 284.62 257.15 299.21 263.35 311.56 273.02 C 306.82 270.73 302.61 267.46 297.68 265.52 C 298.37 266.76 299.07 268.00 299.78 269.23 C 289.43 263.90 280.61 256.15 270.79 249.97 Z" />
<path fill="#805d6b" opacity="1.00" d=" M 208.25 270.27 C 216.42 276.64 224.48 283.17 232.10 290.19 C 226.94 286.85 219.90 284.60 217.58 278.38 C 215.94 278.07 214.14 278.18 212.64 277.45 C 210.97 275.19 209.75 272.63 208.25 270.27 Z" />
<path fill="#805d6b" opacity="1.00" d=" M 330.91 286.03 C 333.14 286.83 335.42 287.72 337.85 287.60 C 338.68 287.87 339.51 288.15 340.34 288.44 C 338.58 288.59 336.83 288.74 335.08 288.91 C 333.69 287.95 332.29 286.99 330.91 286.03 Z" />
<path fill="#805d6b" opacity="1.00" d=" M 235.51 291.65 C 241.14 294.18 245.20 299.19 251.11 301.22 C 252.48 300.44 253.86 299.67 255.23 298.89 C 255.27 298.46 255.36 297.59 255.40 297.16 C 255.45 296.64 255.56 295.62 255.62 295.11 C 254.65 293.96 253.68 292.81 252.71 291.67 C 253.78 292.41 254.85 293.15 255.92 293.90 C 256.53 293.09 257.74 291.48 258.35 290.68 C 258.43 292.06 258.53 293.45 258.63 294.84 C 260.70 296.98 262.32 299.49 263.89 302.01 L 261.89 301.49 C 261.82 303.40 261.79 305.31 261.68 307.22 C 261.35 307.38 260.70 307.69 260.38 307.85 C 260.43 308.96 260.50 310.08 260.56 311.20 C 259.96 311.18 258.77 311.13 258.17 311.11 C 258.20 312.69 258.22 314.28 258.25 315.87 C 257.44 314.54 256.63 313.21 255.83 311.88 C 255.59 311.47 255.09 310.65 254.84 310.24 C 252.51 311.73 250.25 313.34 248.29 315.31 C 244.88 318.70 240.62 321.01 236.73 323.78 C 212.84 340.32 189.48 357.62 166.41 375.28 C 156.42 382.24 147.17 390.22 137.18 397.17 C 135.15 397.10 133.09 396.77 131.09 397.26 C 130.08 399.67 130.78 402.31 130.93 404.81 C 136.82 409.17 143.44 412.35 149.59 416.30 C 153.38 418.59 155.94 422.26 158.48 425.78 C 158.38 424.14 158.29 422.51 158.20 420.88 C 160.55 422.31 162.83 423.86 164.84 425.75 C 164.81 427.26 165.56 428.12 167.06 428.34 C 167.36 428.46 167.97 428.72 168.27 428.84 L 168.21 429.90 C 167.06 435.27 160.62 436.65 155.92 435.96 C 145.70 434.70 135.96 430.60 126.93 425.78 C 129.82 426.85 132.59 428.20 135.49 429.27 C 132.59 423.57 127.51 419.38 122.89 415.10 C 118.04 411.66 115.94 405.63 115.43 399.93 C 115.10 395.79 116.03 391.13 119.36 388.37 C 121.96 386.51 124.98 385.35 127.60 383.52 C 141.75 374.11 155.49 364.11 169.51 354.51 C 175.47 350.73 181.56 347.17 187.55 343.44 C 193.90 339.32 201.27 337.17 207.68 333.15 C 207.80 331.94 208.33 330.98 209.27 330.26 C 216.49 324.68 224.14 319.69 231.86 314.82 C 233.63 314.00 233.64 311.96 234.12 310.34 C 238.11 306.70 243.23 304.52 248.16 302.43 C 243.89 298.89 239.45 295.55 235.51 291.65 Z" />
<path fill="#805d6b" opacity="1.00" d=" M 266.95 296.92 C 267.36 296.74 268.18 296.37 268.58 296.19 C 268.78 300.42 268.80 304.66 268.68 308.90 C 267.68 308.69 266.69 308.48 265.71 308.27 C 265.60 307.61 265.38 306.27 265.28 305.61 C 265.17 305.02 264.96 303.85 264.85 303.26 C 264.73 302.66 264.48 301.47 264.36 300.87 C 265.54 300.60 266.71 300.32 267.90 300.05 C 267.58 299.01 267.27 297.96 266.95 296.92 Z" />
<path fill="#805d6b" opacity="1.00" d=" M 205.60 327.10 C 206.22 326.39 208.59 326.57 207.32 327.83 C 206.19 328.73 204.78 329.94 203.25 329.71 C 202.96 328.43 204.72 327.66 205.60 327.10 Z" />
</g>
<g id="#fdd77fff">
<path fill="#fdd77f" opacity="1.00" d=" M 262.31 81.59 C 266.47 80.10 270.55 78.39 274.64 76.73 C 275.72 77.84 276.79 78.94 277.88 80.05 C 274.31 83.08 270.77 86.15 267.25 89.24 C 267.71 89.64 268.62 90.44 269.08 90.84 C 266.70 94.05 263.86 96.90 260.60 99.22 C 261.14 97.73 261.69 96.24 262.24 94.75 C 253.38 97.52 248.26 105.77 242.31 112.26 C 238.83 116.44 233.64 118.49 229.01 121.07 C 229.20 120.35 229.57 118.90 229.76 118.17 C 220.56 125.46 214.14 136.23 203.08 141.04 C 201.77 144.16 200.19 147.16 198.34 150.01 C 197.84 149.43 196.85 148.27 196.35 147.68 C 194.88 150.29 193.55 153.27 190.71 154.65 C 184.93 157.85 178.28 159.45 173.15 163.82 C 174.63 163.52 176.11 163.22 177.59 162.91 C 175.07 169.17 168.58 173.10 167.32 179.92 C 169.43 177.93 171.28 175.70 173.05 173.40 C 175.98 172.48 178.86 171.40 181.75 170.31 C 187.07 165.25 192.53 160.32 197.70 155.08 C 198.43 155.55 199.16 156.01 199.90 156.48 C 197.59 157.85 194.41 158.88 194.41 162.14 C 199.86 158.41 203.67 152.66 209.68 149.66 C 209.81 149.07 210.07 147.88 210.20 147.29 C 214.24 144.49 218.40 141.83 222.86 139.73 C 222.70 139.37 222.39 138.65 222.23 138.29 C 230.66 129.45 240.14 121.63 247.86 112.12 C 246.96 114.69 246.02 117.24 245.05 119.78 C 250.44 116.26 256.71 114.19 261.68 110.00 C 259.24 111.15 256.83 112.35 254.41 113.52 C 258.31 106.87 264.72 102.42 270.62 97.70 C 274.47 94.72 278.10 91.47 281.70 88.19 C 281.95 88.57 282.45 89.34 282.70 89.72 C 278.73 93.61 273.96 97.00 271.78 102.32 C 276.61 99.44 280.32 95.17 283.93 90.94 C 294.44 97.20 303.04 106.02 311.84 114.39 C 310.77 115.56 309.68 116.73 308.62 117.91 C 309.63 117.65 311.66 117.13 312.67 116.87 C 310.38 119.82 307.95 123.01 304.20 124.13 C 298.15 126.12 292.59 129.59 288.57 134.57 C 285.59 138.29 282.02 141.42 278.02 143.99 C 269.28 151.60 260.14 158.76 251.56 166.56 C 249.60 168.46 246.39 170.97 248.58 173.94 C 244.35 178.11 239.51 181.64 234.14 184.19 C 234.88 182.28 235.64 180.37 236.40 178.46 C 232.68 181.83 228.48 184.67 225.08 188.36 C 224.96 200.26 226.68 212.19 227.09 224.12 C 234.42 229.75 242.00 235.04 249.56 240.36 C 254.34 243.75 259.69 246.19 264.65 249.30 C 264.90 247.89 265.16 246.48 265.42 245.07 C 257.85 242.99 252.85 236.56 246.60 232.29 C 244.78 230.90 242.27 231.79 240.34 230.76 C 237.95 229.31 237.32 226.51 237.09 223.94 C 234.57 222.54 232.03 221.18 229.50 219.81 C 229.02 211.85 228.41 203.90 227.85 195.95 C 227.56 193.78 228.35 191.73 229.20 189.79 C 229.99 198.87 230.11 208.02 231.25 217.06 C 233.91 219.18 237.29 220.11 240.23 221.77 C 244.44 223.92 247.56 227.57 251.25 230.44 C 251.58 229.61 252.25 227.95 252.58 227.13 C 255.60 228.74 258.56 230.50 261.13 232.79 C 274.99 244.89 291.70 253.08 306.06 264.52 C 306.23 264.04 306.56 263.07 306.73 262.58 C 309.43 264.78 311.81 267.33 314.15 269.90 C 316.87 273.04 321.12 273.86 324.85 275.24 C 328.28 276.33 331.32 278.32 334.36 280.21 C 329.05 274.76 322.44 270.84 317.01 265.53 C 320.20 265.96 323.57 266.61 325.96 268.96 C 330.76 273.24 334.89 279.55 342.12 279.41 C 338.54 274.40 332.40 272.44 327.81 268.57 C 328.35 268.24 329.44 267.58 329.98 267.25 C 333.15 269.77 336.31 272.33 339.76 274.47 C 337.44 271.26 334.30 268.83 331.29 266.32 C 332.10 266.48 333.73 266.81 334.54 266.97 C 335.51 267.77 336.45 268.59 337.46 269.38 C 344.57 274.39 351.72 279.51 359.54 283.37 C 362.54 285.24 365.52 287.16 368.39 289.24 C 361.69 290.03 355.81 286.31 350.04 283.54 C 351.64 285.09 353.22 286.67 354.94 288.10 C 358.47 291.45 363.72 290.60 368.06 291.98 C 372.88 292.64 376.99 295.40 380.36 298.80 C 378.33 300.05 376.29 301.26 374.22 302.43 C 373.55 301.16 372.89 299.90 372.22 298.64 C 370.02 300.58 367.85 302.54 365.67 304.51 C 366.78 304.50 368.98 304.48 370.08 304.48 C 368.01 306.26 365.87 307.98 363.70 309.64 C 359.93 306.36 357.37 300.25 351.55 300.73 C 354.03 302.82 356.76 304.58 359.30 306.60 C 357.05 308.23 354.66 309.72 352.82 311.84 C 347.30 317.97 341.96 324.26 336.38 330.32 C 334.61 330.32 332.95 331.05 331.64 332.21 C 319.30 341.45 307.15 350.95 294.61 359.91 C 291.52 361.21 288.73 363.08 286.10 365.15 C 251.66 389.78 217.15 414.31 182.74 438.98 C 177.76 435.83 173.48 431.56 168.27 428.84 C 167.97 428.72 167.36 428.46 167.06 428.34 C 166.89 426.99 166.14 426.13 164.84 425.75 C 162.83 423.86 160.55 422.31 158.20 420.88 C 149.24 414.52 140.52 407.81 131.60 401.39 C 133.43 399.95 135.28 398.52 137.18 397.17 C 147.17 390.22 156.42 382.24 166.41 375.28 C 170.39 373.49 173.90 370.89 177.36 368.28 C 203.51 349.47 229.69 330.70 255.83 311.88 C 256.63 313.21 257.44 314.54 258.25 315.87 C 258.22 314.28 258.20 312.69 258.17 311.11 C 258.77 311.13 259.96 311.18 260.56 311.20 C 260.50 310.08 260.43 308.96 260.38 307.85 C 260.70 307.69 261.35 307.38 261.68 307.22 C 262.87 306.67 264.07 306.13 265.28 305.61 C 265.38 306.27 265.60 307.61 265.71 308.27 C 266.69 308.48 267.68 308.69 268.68 308.90 C 268.80 304.66 268.78 300.42 268.58 296.19 C 268.18 296.37 267.36 296.74 266.95 296.92 C 267.27 297.96 267.58 299.01 267.90 300.05 C 266.71 300.32 265.54 300.60 264.36 300.87 C 264.48 301.47 264.73 302.66 264.85 303.26 C 264.61 302.95 264.13 302.32 263.89 302.01 C 262.32 299.49 260.70 296.98 258.63 294.84 C 258.53 293.45 258.43 292.06 258.35 290.68 C 257.74 291.48 256.53 293.09 255.92 293.90 C 254.85 293.15 253.78 292.41 252.71 291.67 C 253.68 292.81 254.65 293.96 255.62 295.11 C 255.56 295.62 255.45 296.64 255.40 297.16 C 253.23 295.87 251.08 294.56 248.99 293.16 C 249.71 293.18 251.16 293.22 251.88 293.24 C 247.79 286.39 240.48 282.57 234.96 277.05 C 232.26 274.18 228.43 272.97 224.55 273.30 C 221.69 269.57 219.27 265.07 214.72 263.16 C 207.93 259.99 202.73 254.44 196.35 250.64 C 190.98 247.26 185.05 244.92 179.53 241.81 C 184.70 246.97 189.41 252.54 194.05 258.17 C 191.84 256.86 189.52 255.75 187.26 254.53 C 185.94 253.54 184.60 252.57 183.25 251.64 C 162.59 238.31 141.61 225.46 121.02 212.03 C 123.15 210.70 123.82 208.31 124.42 206.04 C 122.38 204.48 120.38 202.84 118.76 200.83 C 124.34 196.39 129.77 191.76 135.28 187.22 C 137.99 184.95 141.03 182.96 142.98 179.93 C 143.24 180.21 143.75 180.77 144.00 181.05 C 144.11 180.70 144.32 180.00 144.43 179.65 C 147.06 177.34 149.73 175.03 152.59 173.01 C 156.14 171.13 159.66 168.93 161.74 165.37 C 168.50 159.39 175.76 153.98 182.42 147.88 C 182.65 147.82 183.10 147.71 183.32 147.66 C 182.64 149.06 181.96 150.46 181.29 151.86 C 188.24 145.95 195.12 139.93 202.73 134.88 C 202.71 134.44 202.65 133.56 202.62 133.12 C 209.27 127.45 214.81 120.57 221.70 115.18 C 223.44 113.89 225.23 112.65 226.95 111.33 L 227.00 112.86 C 238.43 106.23 248.17 97.14 258.35 88.79 C 256.53 89.81 254.73 90.88 252.84 91.75 C 252.25 91.83 251.07 91.99 250.47 92.06 C 254.17 88.30 258.49 85.23 262.31 81.59 M 218.67 120.58 C 216.31 123.47 213.94 126.36 211.81 129.43 C 217.64 124.38 223.35 119.15 228.73 113.62 C 225.21 115.65 221.24 117.29 218.67 120.58 M 223.10 139.69 C 227.38 137.45 232.22 135.02 233.49 129.89 C 230.06 133.19 226.73 136.60 223.10 139.69 M 150.80 187.04 C 149.63 188.14 150.55 189.65 150.82 190.91 C 156.72 185.53 162.39 179.75 166.32 172.73 C 161.32 177.69 155.34 181.64 150.80 187.04 M 143.98 191.06 C 141.72 192.33 139.26 193.24 137.22 194.89 C 138.27 194.77 140.37 194.54 141.42 194.42 C 140.87 195.13 139.78 196.53 139.23 197.23 C 143.08 193.52 147.56 190.26 150.29 185.55 C 148.05 187.24 146.21 189.38 143.98 191.06 M 124.85 205.91 C 126.59 208.73 130.19 209.78 133.08 211.16 C 131.14 209.60 129.18 208.04 127.30 206.43 C 132.01 207.57 135.52 211.33 140.29 212.28 C 138.82 210.27 137.19 208.40 135.46 206.62 C 135.51 206.30 135.59 205.67 135.63 205.35 C 133.77 207.53 131.12 205.74 129.02 205.00 C 127.48 204.30 124.50 202.93 124.85 205.91 M 150.78 220.73 C 153.64 222.43 156.49 224.15 159.43 225.72 C 159.43 221.69 155.92 219.81 152.81 218.24 C 152.13 219.07 151.45 219.90 150.78 220.73 M 149.24 224.78 C 153.61 227.28 157.51 230.48 161.67 233.29 C 163.39 234.58 165.58 234.35 167.60 234.31 C 168.52 235.32 169.43 236.32 170.37 237.32 C 170.17 234.13 167.47 232.34 165.33 230.40 C 165.29 231.13 165.21 232.58 165.17 233.30 C 161.85 232.71 160.88 229.42 158.99 227.14 C 155.84 225.97 152.49 225.54 149.24 224.78 M 270.79 249.97 C 280.61 256.15 289.43 263.90 299.78 269.23 C 299.07 268.00 298.37 266.76 297.68 265.52 C 302.61 267.46 306.82 270.73 311.56 273.02 C 299.21 263.35 284.62 257.15 270.79 249.97 M 330.91 286.03 C 332.29 286.99 333.69 287.95 335.08 288.91 C 336.83 288.74 338.58 288.59 340.34 288.44 C 339.51 288.15 338.68 287.87 337.85 287.60 C 335.42 287.72 333.14 286.83 330.91 286.03 Z" />
<path fill="#fdd77f" opacity="1.00" d=" M 330.90 266.69 C 327.14 265.19 323.50 263.01 321.78 259.17 C 322.62 259.53 323.47 259.92 324.31 260.32 C 326.66 262.25 329.19 264.11 330.90 266.69 Z" />
</g>
</svg>
